<svg width="147" height="147" fill="none" xmlns="http://www.w3.org/2000/svg"><path d="M110.436 80.31c-.16-.191-.799-.954-.956-1.145v-.234l-.061-.057-.06-.056c-.134.157-.271.314-.404.468-.134.157-.271.314-.405.468-.06-.037-.121-.077-.178-.114-.06-.036-.117-.076-.177-.113-.057.137-.114.27-.17.408l-.171.408h-.355c.037-.077.077-.154.114-.234.037-.077.077-.154.114-.234l-.469.18-.468.18-1.144 2.219-.562 1.746c-.251.137-1.261.693-1.515.83l-.231.408-.231.408v.234l-.114.291c-.037.097-.077.194-.113.291-.235 0-1.175.017-1.412.02v-.461l-.06-.057-.061-.057c.02-.02.04-.04.057-.06l.057-.057c0-.154-.01-.773-.013-.927h.113l-.06-.114-.06-.113c.017-.138.033-.271.054-.408.016-.138.033-.271.053-.405h.12c-.02-.114-.043-.231-.063-.348-.02-.117-.044-.231-.064-.348l.807-1.054.22-1.16c.174-.215.867-1.075 1.037-1.289-.043-.194-.083-.384-.127-.578-.04-.194-.083-.385-.127-.579.077-.097.154-.194.231-.294.077-.097.154-.194.231-.295.428-.14 2.144-.706 2.576-.846l-.141-1.502.458-.82-.588-.05-.589-.05c-.04-.114-.08-.231-.124-.345-.04-.113-.08-.23-.124-.344l-.414-.285c-.138-.093-.278-.19-.415-.284a4.996 4.996 0 0 0-.064-.23c-.02-.078-.04-.155-.063-.232.167-.582.839-2.907 1.007-3.485-.138-.077-.275-.15-.415-.228-.137-.077-.275-.15-.415-.227-.154.137-.308.274-.465.411l-.465.412c-.157 0-.315.003-.468.006-.158 0-.315.004-.469.007l-.117.117c-.037.04-.077.077-.117.117l-.12-.23-.121-.231-.174.06-.174.06c.077-.137.154-.271.228-.408.077-.137.154-.271.227-.408-.04-.134-.08-.271-.124-.405-.04-.134-.08-.268-.123-.405.097-.08.194-.157.291-.234l.291-.234.17-.352.171-.35a231.6 231.6 0 0 0-.726-1.379c.097 0 .194 0 .294-.003.098 0 .195 0 .295-.004.017-.117.037-.23.053-.348.017-.117.037-.23.054-.348-.141-.17-.699-.86-.836-1.03.097-.097.194-.197.287-.294.097-.097.194-.194.288-.295l-.181-.287-.18-.288c-.097-.017-.198-.037-.295-.053l-.294-.054c-.1-.094-.495-.475-.596-.572-.214-.037-1.077-.177-1.294-.214l-.18-.231-.181-.23-.643.123c-.214.04-.428.084-.642.124-.117-.077-.238-.15-.355-.228-.117-.077-.237-.15-.354-.227v-.461c.114-.158.23-.312.344-.47.114-.157.231-.31.345-.468a7.765 7.765 0 0 1-.238-.113 7.765 7.765 0 0 1-.237-.114 12.4 12.4 0 0 0-.064-.348c-.02-.117-.04-.23-.063-.348-.198-.074-.392-.15-.589-.224-.197-.074-.391-.15-.589-.224l-1.76.023c-.157-.093-.314-.187-.471-.284-.157-.094-.315-.187-.472-.284l-.29.12-.292.12c-.274-.093-1.371-.465-1.646-.555-.194.02-.977.11-1.17.13-.04.078-.078.155-.114.235-.037.077-.077.154-.114.234h-.468c-.06-.077-.12-.154-.181-.228-.06-.076-.12-.153-.18-.227-.392-.013-1.954-.07-2.346-.087-.649-.321-3.241-1.602-3.89-1.92-2.466-.472-12.328-2.369-14.793-2.844-.261-.538-1.298-2.69-1.556-3.228l-.645-.11c-.214-.037-.428-.074-.646-.11l-.12-.288-.12-.288-.526.18-.525.181c-.06-.097-.12-.19-.178-.287-.06-.097-.12-.191-.177-.288l-.234.06-.234.06c-.137-.077-.275-.15-.412-.227-.137-.077-.274-.15-.411-.228-.157-.017-.311-.037-.469-.053-.076-.01-.157-.017-.234-.027a1.384 1.384 0 0 1-.498-.197l-.264-.17c-.087-.058-.178-.115-.265-.172-.147-.093-.29-.157-.324-.14l-.057.03-.057.03c-.033.017-.06-.01-.06-.057V47.412a.374.374 0 0 0-.01-.094 10.297 10.297 0 0 0-.355-.264c-.113-.084-.227-.167-.344-.25l-.295-.215a2.963 2.963 0 0 0-.3-.204.643.643 0 0 0 .116.127l.124.12.177.171c.097.094.087.184-.026.204l-.204.03-.188.03c-.103.017-.093.06.03.09.074.02.148.038.221.054.077.02.157.037.234.057.13.03.157.057.06.057h-.347a.535.535 0 0 0-.322.147c-.046.05-.096.097-.143.147-.097.097-.194.194-.291.295-.332.137-1.653.689-1.984.826l.22-1.274c.118-.138.58-.68.693-.817l-.18-.635-.181-.636c.194-.27.963-1.361 1.154-1.632.017-.174.037-.348.053-.522l.054-.522.174-.06.174-.06-.592-.92-.234-.054c-.077-.017-.158-.037-.235-.053l-.06-.175-.06-.174h-.582c-.117.098-.234.194-.348.291-.117.098-.234.195-.348.292-.117-.017-.585-.09-.702-.11-.312.29-1.55 1.461-1.857 1.752l-.117.06-.117.06h-.234l-.291.06-.291.061a7.609 7.609 0 0 1-.235-.23c-.428.31-2.134 1.562-2.562 1.876l-.117-.057-.117-.057-6.303 2.365c-.214.02-.428.04-.642.064-.214.02-.428.04-.642.063h-.703c-.217-.21-1.08-1.053-1.298-1.26-.077.056-.154.116-.23.173-.078.057-.154.117-.231.174-.057.117-.118.23-.174.348-.057.117-.117.23-.174.348l-.174.06-.174.06-.462.93-1.17-.224c.09 1.967.457 9.839.548 11.81-.077.04-.157.076-.234.116-.077.04-.158.077-.235.117-.056.154-.113.311-.174.465-.056.154-.113.311-.173.465-.178-.017-.352-.037-.529-.053-.177-.017-.351-.037-.529-.054-.097.154-.481.776-.578.93-.137 0-.683.004-.82.007-.057.117-.117.234-.174.348-.057.117-.117.234-.174.348-.371.214-1.85 1.07-2.218 1.288-.154.445-.77 2.224-.923 2.67-.174.156-.873.779-1.05.933l-.171.695-.17.696c.02.23.106 1.158.127 1.388l.588.345 1.054-.12.294.17.295.17c.217.426 1.09 2.118 1.308 2.54l-.462 1.044c-.154.347-.308.695-.465 1.043l-.29.291-.292.291c-.017.328-.087 1.643-.107 1.97l.361 1.503c-.117.194-.582.97-.699 1.16.08.134.16.268.238.405.08.134.157.268.237.405l.365 1.967-.174.291-.174.291.12.636.12.635c-.096.308-.19.62-.287.927-.097.308-.19.619-.288.927l2.6 1.953.358.693.766.341.766.341c.431.054 2.157.275 2.589.328.1.19.197.385.298.576.1.19.197.384.297.575.117.114.593.575.713.689.375.114 1.867.565 2.238.68.355.21.71.417 1.064.628l1.064.629 1.073 1.73 1.074 1.729 3.436 2.633c.217.016.431.036.649.053.217.017.431.037.649.054.354.227.709.458 1.064.686l1.063.685c.318.499.636.997.957 1.496.318.498.64.997.957 1.495.023.271.11 1.351.13 1.619.124.753.623 3.757.75 4.51 0 .153 0 .307.003.461 0 .154 0 .308.003.462l.241.461.241.462c0 .134 0 .271.003.405 0 .134 0 .271.004.405.257.134.512.264.77.398l.769.398c.1.154.2.308.297.462.1.153.201.307.298.461-.017.117-.037.231-.053.348-.017.117-.037.231-.054.348-.137.157-.274.311-.408.468-.137.158-.274.311-.408.469l-.231.521-.23.522c.063.676.327 3.376.39 4.048.181.248.358.499.54.746.18.248.357.499.538.746l.247 1.158c.084.384.164.769.248 1.157l.237.288c.08.097.16.19.238.287.237.134.475.265.712.399.238.133.476.264.713.398.612.11 3.058.548 3.67.659.22.344.438.689.659 1.033.22.345.438.69.659 1.034l.124.579c4.272-.254 21.35-1.302 25.621-1.569 2.89-.251 14.455-1.258 17.345-1.512-.067-.442-.13-.887-.197-1.328-.067-.442-.13-.887-.197-1.328l.424-3.249c-.24-.284-1.204-1.428-1.445-1.716-.023-.328-.047-.655-.073-.983-.024-.328-.047-.656-.074-.984l-.96-1.144.338-1.047-.606-1.034.111-.522.11-.521c-.104-.328-.207-.653-.308-.981-.103-.327-.207-.652-.307-.98.033-.328.07-.655.103-.987.034-.327.071-.655.104-.986.151-.368.305-.74.455-1.108l.455-1.107c.013-.348.03-.696.044-1.044.013-.348.03-.696.043-1.043.151-.352.759-1.75.913-2.098-.003-.308-.01-.619-.013-.927l-.014-.926c-.1-.211-.508-1.054-.608-1.265-.007-.384-.027-1.93-.034-2.315l.331-1.625.332-1.626 1.281-1.06.231-.352.23-.351c0-.154-.003-.308-.006-.462-.004-.154-.004-.308-.007-.462-.104-.287-.512-1.438-.615-1.729.013-.368.03-.733.043-1.1.013-.369.03-.733.044-1.101l.762-3.948.402-.759.401-.76c.09-.407.458-2.033.552-2.441-.137-.057-.274-.11-.415-.168-.137-.057-.274-.11-.415-.167l.01.053Zm-17.298 21.386-.856 1.248a.595.595 0 0 1-1.054-.144c-.291-.837-.763-1.69-1-2.091a.6.6 0 0 1-.044-.512l1.144-2.994a.597.597 0 0 1 .555-.385c.285 0 .532.204.586.482l.763 3.948a.6.6 0 0 1-.094.451v-.003ZM54.952 41.1h.275v.12h.609c-.03-.06-.064-.12-.094-.18s-.063-.12-.094-.18l.077-.048.077-.047-.123-.18c-.04-.06-.084-.12-.124-.181l-.03.107-.03.107a9.42 9.42 0 0 1-.275.107c-.09.037-.18.074-.275.107v.275l.007-.007ZM62.003 42.783c.04-.017.08-.03.124-.047.04-.017.08-.03.123-.047l.06-.137.061-.137.107-.09c.037-.03.07-.06.107-.091v-.18c-.067.04-.13.08-.197.123-.067.044-.13.08-.198.124h-.214c-.033.057-.07.11-.107.167l-.107.168c.04.023.08.05.124.073.04.024.08.05.123.074h-.006Z" fill="#2B2B2B"/><path d="m61.083 43.398-.238-.288-.237-.288-.234.06-.235.06c-.21.215-.424.429-.635.643-.21.214-.425.428-.636.642-.097.06-.194.117-.29.178-.098.06-.195.117-.292.177-.02.134-.037.27-.057.405-.016.133-.036.27-.053.404l.465-.35c.154-.118.31-.235.465-.352l.468-.12.468-.12-.12-.289-.12-.287c.214-.08.428-.157.642-.238l.642-.237h-.003ZM58.256 41.458l.237.288.238.288.292-.12.29-.121-.18-.345a16.59 16.59 0 0 1-.177-.345h-.582c-.021.057-.038.117-.058.174-.02.057-.037.117-.057.174l-.003.007ZM57.838 40.317l.214.044c.07.013.144.03.214.043l.044-.197c.013-.067.03-.13.043-.198a7.69 7.69 0 0 1-.167-.164c-.057-.053-.114-.11-.167-.164l-.137.09-.138.091c.017.074.034.15.047.228.017.077.034.15.047.227ZM63.151 39.557c.017-.174.034-.348.054-.521.017-.174.033-.348.053-.522-.077-.02-.157-.037-.234-.057-.077-.02-.157-.037-.234-.057l-.174.234-.174.234-.05.753-.05.753c.134-.138.27-.275.405-.408.133-.138.27-.275.404-.409ZM60.95 41.661l.234.114c.08.037.157.077.234.114l.11-.522.11-.522-.524.12-.526.121c-.097.06-.194.117-.29.177-.098.06-.195.117-.292.178-.02.097-.037.194-.057.29-.02.098-.036.195-.056.292.173-.06.347-.12.525-.178l.525-.18.007-.004ZM59.488 40.815l-.03.12c-.03.038-.06.071-.09.108l-.09.107.076.06.077.06c.06-.03.12-.06.181-.093.06-.03.12-.06.18-.094.014-.04.031-.08.044-.12l.044-.12v-.241l-.184.046c-.06.017-.12.03-.184.047a53 53 0 0 0-.03.12h.006ZM58.568 43.63l.15-.305.151-.305c-.02-.033-.04-.07-.063-.104-.02-.033-.04-.07-.064-.103l-.137.12c-.047.04-.09.08-.138.124-.033.107-.07.21-.103.318-.034.107-.067.21-.104.318.05-.01.1-.02.15-.033.05-.01.1-.02.151-.034l.007.003ZM60.794 40.2l.09.03.09.03.044-.12c.013-.04.03-.08.043-.12l.014-.121c.003-.04.01-.08.013-.12-.047-.024-.09-.05-.137-.074-.047-.024-.09-.05-.137-.074v-.361l-.138.137-.137.137c.044.11.084.221.127.332.044.11.084.22.128.331V40.2ZM58.815 40.612c.047.003.09.01.138.013l.137.014c.053-.06.11-.12.164-.184.053-.06.11-.121.164-.185-.08-.023-.164-.047-.245-.073l-.244-.074-.06.104-.06.107v.275l.006.003ZM58.898 39.916h.275l.06-.228.06-.227c.04-.017.08-.03.121-.047.04-.017.08-.03.12-.047l.044-.15c.013-.051.03-.101.044-.152-.06.037-.121.07-.181.108l-.181.107c-.037.006-.07.01-.107.017l-.107.016c-.024.057-.05.11-.074.168-.023.056-.05.11-.074.167v.268ZM115.344 70.97c-.02-.097-.044-.191-.064-.288-.02-.097-.043-.19-.063-.288-.02-.077-.04-.154-.064-.23-.02-.078-.043-.154-.063-.231-.04-.02-.081-.037-.117-.057-.041-.02-.081-.037-.117-.057l-.061-.057-.06-.057-.117.06-.117.06-.057.118-.057.117h-.12l-.06-.057-.061-.057h-.354c-.02.02-.04.04-.057.06-.02.02-.04.04-.057.06 0 .077 0 .154.003.231 0 .077 0 .154.004.231l-.057.06-.057.06h-.12c-.041.04-.077.08-.114.118-.04.04-.077.08-.117.117v.113c-.02.077-.037.154-.057.235-.02.077-.037.153-.057.234v.348l-.057.06-.057.06c-.057.04-.117.077-.174.117-.057.04-.117.077-.174.117-.02.02-.04.04-.057.06-.02.02-.04.04-.056.06-.021.057-.037.118-.057.175-.02.056-.037.117-.057.173-.02.02-.04.04-.057.06-.02.02-.04.04-.057.06a3.721 3.721 0 0 0-.177-.053c-.06-.016-.117-.036-.178-.053-.036.04-.076.077-.113.117l-.117.117c-.02.02-.04.04-.057.06-.02.02-.04.04-.057.06l-.05.58-.05.578-.111.408-.11.408c-.02.02-.04.04-.057.06-.02.02-.04.04-.057.06l-.117.06-.117.061-.288.468-.288.469c-.036.077-.076.154-.113.234-.037.077-.077.154-.114.234l-.11.522-.111.522-.11.351-.111.348c.041.114.081.23.124.344.04.114.08.231.124.345.06.114.12.231.181.345l.18.344c.081.077.161.15.238.228.08.077.16.15.237.227.081.037.158.074.238.114.08.037.157.074.237.114.02-.02.041-.04.057-.06.02-.02.04-.04.057-.06.057-.04.117-.078.174-.118.057-.04.117-.077.174-.117l.288-.351c.097-.117.19-.234.287-.351.057-.077.114-.158.174-.235.057-.077.114-.157.174-.234v-.113c.02-.02.04-.04.057-.06.02-.02.04-.04.057-.06-.02-.078-.04-.155-.064-.232-.02-.077-.04-.154-.063-.23.02-.02.04-.04.057-.06.02-.02.04-.04.057-.061.036-.077.077-.157.113-.234l.114-.234-.06-.114-.06-.114c0-.097 0-.194-.004-.29 0-.098 0-.195-.003-.292l-.06-.057-.06-.057.056-.117.057-.117v-.113c.057-.04.117-.08.174-.118.057-.04.117-.08.174-.117l.057-.117.057-.117.057-.117.057-.117c.02-.057.036-.117.057-.174.016-.057.036-.117.056-.174.02-.057.037-.117.057-.174.02-.057.037-.117.057-.174H114.1V74.6c-.021-.037-.041-.077-.061-.114l-.06-.113h.121l.117-.06.117-.06h.12l.057-.06.057-.061v-.114l-.06-.057c-.02-.02-.041-.036-.061-.057-.04-.02-.08-.036-.117-.056-.04-.02-.08-.037-.117-.057-.04-.097-.083-.191-.123-.288l-.124-.288-.06-.057c-.021-.02-.041-.036-.061-.056l.057-.117.057-.118h.241l.12.171.121.17h.113a.631.631 0 0 0 .057-.06c.02-.02.041-.04.057-.06V72.74h-.234v-.113a3.92 3.92 0 0 1 .057-.175c.017-.056.037-.117.057-.173 0-.077 0-.154-.004-.231 0-.077 0-.154-.003-.231l-.06-.174-.06-.174v-.234h.113c.061.037.117.077.178.114.06.036.12.077.177.113h.12c.021-.02.037-.04.057-.06l.057-.06.117-.117.117-.117v-.114l-.013-.023ZM116.582 67.594a9.107 9.107 0 0 1-.238-.113l-.408.18-.408.18-.06-.173c-.02-.057-.04-.114-.064-.174a620.37 620.37 0 0 1-.22.696c.02.097.043.194.063.287.02.097.044.194.064.288 0 .077 0 .154.003.23 0 .078 0 .155.003.232.057-.077.114-.158.171-.234l.171-.235.12.17.12.172c.097 0 .194 0 .295-.004.097 0 .194 0 .294-.003.054-.231.111-.465.164-.696.054-.23.111-.465.164-.696-.077-.037-.157-.073-.237-.113l.003.006Z" fill="#2B2B2B"/></svg>