<svg width="147" height="147" fill="none" xmlns="http://www.w3.org/2000/svg"><path d="m94.277 46.114-2.268-.26c-2.493-.134-4.981-.268-7.47-.405-2.49-.137-16.028-1.077-20.303-1.419-4.275-.337-8.55-.682-12.826-1.03l-.612 5.57c-.204 1.856-.408 3.713-.615 5.57-.15.187-.298.374-.449.565l-.448.566c-.067.194-.13.387-.197.582-.067.194-.13.388-.198.582-.204.03-.408.063-.615.093-.204.03-.408.064-.616.094-.107-.097-.21-.194-.317-.294-.108-.1-.211-.194-.318-.295l-.08-.435-.08-.435c-.121-.097-.238-.194-.359-.29-.12-.098-.237-.195-.358-.292l-.445.12-.445.121c-.13-.083-.264-.164-.394-.247-.13-.084-.265-.164-.395-.248-.137.027-.271.05-.408.077-.137.027-.271.05-.408.077-.044-.023-.087-.047-.13-.067-.044-.023-.088-.047-.131-.067l-.673.382-.672.38c.01.121.02.242.033.362.01.12.02.241.034.362-.05.056-.1.117-.15.174l-.151.173.037.398c.013.134.023.268.036.399.114.177.225.354.338.532.114.177.224.354.338.531l-.234.181c-.077.06-.154.12-.234.18-.027.312-.054.623-.084.934-.027.311-.053.622-.083.933.033.05.063.1.097.154.033.05.063.1.097.154l-.057.288-.057.288.194.304.194.304-.15.174-.151.174.057.158c.02.053.036.103.057.157l-.208.461-.207.462.381 1.014.382 1.013c.013.321.073 1.603.09 1.924-.037.19-.077.381-.114.572-.037.19-.077.381-.114.575-.133.054-.267.104-.401.157-.134.054-.268.104-.402.158.067.113.13.23.198.344.067.114.13.231.197.345l-.234.18c-.077.06-.157.12-.234.181-.007.094-.01.187-.017.284-.007.094-.01.188-.017.285l-.046.89c-.017.297-.03.592-.047.89l.28.337.282.338c.043.184.087.368.134.552.043.184.087.368.133.552l.218.1.217.1.19.265c.065.087.128.177.192.264a299.55 299.55 0 0 0 .3 1.5l-.08.046-.08.047c.097.167.197.331.294.498.098.167.198.331.295.499l-.08.488-.08.489.3.093c.1.03.201.064.301.094.08.114.161.227.238.341.077.114.16.228.237.341l.623.428c.207.144.414.285.622.429.074.207.147.415.224.625.074.208.147.415.224.626-.247.184-.495.364-.742.548-.248.184-.496.365-.743.55-.361.166-.723.334-1.08.497a276.8 276.8 0 0 1-1.081.499l-.164.498c-.054.168-.11.332-.164.499-.21.14-.421.278-.629.418-.21.14-.421.278-.629.418.037.09.07.18.107.271.037.09.07.18.107.271l-.19.662-.191.663c.013.294.023.589.037.883.013.294.023.589.037.883-.08.047-.158.094-.238.144-.08.047-.157.094-.237.144l-.09.853-.091.853c-.117.104-.231.207-.348.314a9.452 9.452 0 0 0-.682.783c-.11.154-.225.315-.335.472l-.114.13c-.037.044-.077.087-.114.13h-.916l.08.436.08.435-.264.304-.264.304c.107.097.532.489.636.586l-.06.73-.06.728c-.085.154-.168.311-.252.465-.084.154-.167.311-.25.465.066.14.136.281.203.425.067.14.137.281.204.425l.124-.01.124-.01.22.14.221.141c.138-.013.278-.023.415-.037.137-.013.278-.023.415-.037.06.05.12.097.18.148l.181.147.194.304.194.305c-.013.31-.03.619-.043.93-.013.311-.03.618-.043.93l-.439.24c-.147.081-.29.161-.438.241l-.02.245-.02.244c-.067.02-.137.04-.204.057-.067.02-.137.04-.204.056l-.11.171-.111.171-.408.117c-.17-.054-.345-.104-.515-.157-.17-.054-.345-.104-.515-.158a4.6 4.6 0 0 1-.201.097 4.6 4.6 0 0 1-.2.097c-.121.198-.245.398-.365.596l-.365.595c-.067.047-.13.094-.198.137-.066.047-.13.094-.197.138-.02.097-.04.19-.057.287-.02.097-.04.191-.057.288l.014.161c.003.053.01.107.013.16l-.077.087-.077.087c0 .027.004.054.007.08 0 .027.003.054.007.081l-.104.251-.104.25 8.772 4.055c2.927 1.348 5.854 2.696 8.784 4.041a6084.45 6084.45 0 0 0 26.94 11.765c2.76.144 5.52.285 8.276.422l8.28.411.802.044c.268.013.536.027.803.043l3.623.051c1.208.016 2.416.033 3.623.046.602-13.28 2.911-66.407 3.466-79.688-2.379-.083-4.754-.17-7.129-.257s-4.753-.174-7.129-.264l-.033-.02Z" fill="#2B2B2B"/></svg>