<svg width="148" height="147" fill="none" xmlns="http://www.w3.org/2000/svg"><path d="M59.734 40.4c-.16.12-.321.237-.482.358l-.481.358c-.188.05-.372.1-.559.154-.187.05-.371.1-.559.154l-.2.418-.201.418c.291.358.582.72.876 1.077.291.358.583.72.877 1.077l-.04 1.171-.04 1.17.214.131c.07.044.143.087.214.13.053.275.11.55.164.824.053.274.11.548.164.823-.194.602-.974 3.007-1.168 3.61l.164 6.048-.488.22c-.164.074-.325.148-.489.221.097.134.198.268.295.405.097.134.197.268.294.405-.09.164-.18.328-.271.488-.09.164-.18.328-.271.488l.15.342.151.341c-.11.23-.22.465-.334.696-.11.23-.221.465-.335.696.144.157.291.314.435.468.144.157.291.314.435.468l-.2.418-.202.419-.05.756-.05.756-.83.642-.83.642-2.03 3.219c-.184.143-.923.712-1.107.856-.134.234-.271.465-.405.699-.134.234-.27.465-.405.7l-.84.16-.759.639-.76.639c-.216-.201-1.083-1.004-1.3-1.201-.094.026-.188.05-.281.073-.094.027-.188.05-.281.077-.251.328-1.252 1.64-1.5 1.967.008.275.014.549.021.827l.02.826-1.549.177c-.093.07-.184.144-.277.214-.094.07-.184.144-.278.214.003.16.007.322.013.482l.014.482c-.094.05-.465.244-.559.29-.067.161-.331.81-.395.97l.459 1.366c-.02.094-.04.184-.064.277-.02.094-.04.184-.064.278-.184.144-.368.284-.555.428-.184.144-.368.285-.555.428.194.178.385.358.578.536.194.177.385.358.58.535l.016.619c.007.207.01.411.017.619l.29.405c.098.133.195.27.292.404l-.211.074c-.07.023-.14.05-.21.073l-.429-.197-.428-.197c-.157.324-.311.649-.469.977-.157.324-.314.649-.468.976-.144-.043-.284-.083-.428-.127-.144-.043-.284-.083-.428-.127.067-.184.13-.371.197-.555.067-.184.13-.371.198-.555-.148-.201-.733-1.014-.88-1.215l-1.843-.365-.964 1.125c-.11.347-.545 1.736-.652 2.08l.177 1.372c-.18.28-.907 1.398-1.09 1.676l.89 1.629.622 2.325c-.09.117-.181.234-.275.351-.09.117-.18.234-.274.352-.214-.017-1.064-.088-1.278-.104-.047.07-.09.14-.137.21-.047.07-.09.141-.137.211-.034.576-.164 2.87-.194 3.446-.536.264-2.68 1.328-3.215 1.592l-.78-.05-.78-.05c.004.184.011.368.014.549l.014.548c.123.228.615 1.131.739 1.355.03.228.06.458.087.686.03.227.06.458.087.686l-.348.217-.348.218c.05.18.104.364.154.545.05.18.104.364.154.545-.02.07-.044.137-.064.207-.023.071-.043.141-.063.208-.094.047-.188.097-.281.144-.094.047-.188.097-.281.144.027.09.053.18.077.271.026.09.053.18.077.274l.575.331.575.331c.268.362 1.342 1.8 1.61 2.161.19.134.384.265.575.398.19.134.385.265.575.398-.043.208-.083.415-.127.623-.043.207-.083.414-.127.622.238.11 1.194.545 1.432.652.147.295.742 1.472.893 1.767l1.723.782.01.412.01.411c.147.248.74 1.241.886 1.492.191.017.947.091 1.138.107.12.111.605.559.726.669.093-.07.184-.143.277-.214.094-.07.184-.144.278-.214.1.157.495.79.592.95.094 0 .188-.003.285-.006.093 0 .187-.004.284-.007l-.06.415-.06.415c.19.016.378.036.568.053.188.017.378.037.569.053.12.067.24.131.358.198.12.067.24.13.358.197 0-.113-.007-.227-.01-.344 0-.114-.007-.231-.01-.345.097.067.194.134.29.197.098.067.195.134.292.198l.418-.218c.14-.073.278-.143.418-.217l.217.13.218.131c.097.09.194.177.291.268l.291.267-.482.562-.481.562 1.585.92.014.549c.003.184.01.368.013.548l1.442.924c.12.133.244.267.364.401s.245.268.365.402c.285.016 1.419.076 1.703.093l1.88 1.325c.375-.08.753-.157 1.127-.238.375-.08.753-.157 1.128-.237.137-.211.682-1.051.82-1.261.277-.168 1.394-.84 1.672-1.007l.334-.766c.11-.254.221-.512.335-.766.505.307 2.526 1.535 3.027 1.843l1.392-1.004c.375-.123 1.873-.625 2.248-.752l.345-.285.344-.284c.05.043.097.09.147.134.05.043.097.09.148.134.07-.024.14-.051.21-.077.07-.024.14-.051.211-.077l.83-.78.83-.779-.369-.472-.368-.472c.044-.16.084-.321.127-.485.044-.16.084-.321.128-.485.19.017.378.034.568.054.191.017.378.033.569.053.027.091.05.181.077.275.027.09.053.18.077.274.12.067.24.13.361.197.12.067.241.131.362.198l4.017-3.279.355-.01.354-.01.298.472c.1.157.197.314.298.472.14-.074.28-.144.418-.218.14-.073.281-.144.418-.217l.612-.843.612-.843.56-.291.558-.291c0-.114-.007-.231-.01-.345l-.01-.344-.422.15-.421.151a16.511 16.511 0 0 0-.014-.412c-.003-.137-.006-.274-.013-.411.207-.168.415-.332.622-.499l.622-.498c.067-.141.134-.281.201-.418l.2-.419c-.12-.043-.237-.083-.357-.127-.12-.043-.238-.083-.358-.127l-.492.084c-.164.027-.328.057-.492.083-.026-.16-.056-.321-.083-.478-.027-.16-.057-.321-.084-.478l.405-.633c.134-.21.271-.421.405-.632l-.15-.338-.151-.338.27-.351.272-.351a6.77 6.77 0 0 1-.077-.274c-.027-.091-.054-.181-.077-.275.137-.187.27-.374.408-.562.137-.187.27-.374.408-.562-.003-.137-.007-.274-.013-.411a16.83 16.83 0 0 0-.014-.412c.14-.073.278-.143.418-.217l.418-.218.332-.766.33-.766c.185-.21.365-.421.55-.635.184-.211.364-.422.548-.636.127-.508.632-2.539.756-3.047-.033-.298-.063-.596-.097-.894-.033-.297-.063-.595-.097-.893l2.044-2.676-.224-.405-.224-.405.264-.625c.087-.207.178-.418.264-.626.094 0 .188-.006.285-.01.093 0 .187-.007.284-.01-.007-.184-.01-.368-.017-.548l-.016-.55.267-.487.268-.489c-.08-.274-.157-.545-.238-.82l-.237-.819c.067-.094.137-.187.204-.281.067-.094.137-.187.204-.281l-.08-.341-.08-.341c.043-.184.083-.368.127-.552.043-.184.083-.368.127-.556.354.08.712.16 1.067.244.354.08.712.161 1.067.245.244.338.492.672.736 1.01.244.338.492.672.736 1.01.569.074 2.837.372 3.405.445.094-.07.184-.144.278-.214.094-.07.184-.144.278-.214.154-.305.31-.606.468-.91.154-.304.311-.605.468-.91.144-.716.716-3.576.857-4.292l.351-.08.351-.08-.05-1.65-.05-1.649.472-.773.471-.77 2.727 1.43c.127-.51.629-2.543.752-3.052.134-.21.271-.421.405-.632.134-.21.271-.421.405-.632.047-.024.094-.05.137-.074.047-.023.094-.05.137-.073l.151.27.15.272c.137-.164.271-.332.408-.496.138-.163.271-.33.409-.495.063-.184.127-.37.194-.555.063-.184.127-.371.194-.555.12.02.237.04.354.057.121.02.238.04.355.057l.261-.63.261-.628c-.05-.067-.097-.134-.147-.2l-.148-.202c.178-.348.355-.699.532-1.047.177-.351.355-.699.532-1.047.114-.094.231-.19.345-.288.113-.093.23-.19.344-.287.087-.211.174-.418.265-.63.087-.21.173-.417.264-.628-.097-.09-.194-.177-.291-.268a21.447 21.447 0 0 1-.291-.267c.04-.208.08-.415.123-.622.041-.208.081-.415.124-.623l-.144-.063-.143-.064c.127-.395.257-.786.384-1.18.127-.395.258-.787.385-1.182-.074-.066-.144-.133-.217-.2l-.218-.201c-.037-.388-.177-1.944-.214-2.332 1.887.95 9.437 4.74 11.324 5.687.073-.665.361-3.335.431-4.004l.198-.418c.067-.14.134-.281.197-.418-.097-.067-.191-.13-.288-.198l-.287-.197c-.01-.275-.047-1.375-.054-1.65-.073-.066-.144-.133-.217-.197l-.218-.197a100.74 100.74 0 0 1-.99-.107l-.08-.271-.081-.271c.071 0 .141-.004.211-.007.07 0 .141-.003.211-.006l-.221-.268-.221-.268c.067-.07.138-.14.204-.214l.205-.214-1.258.318c.02-.137.037-.278.057-.415.02-.137.036-.278.056-.415-.046 0-.093 0-.14.004-.047 0-.094 0-.141.003-.043.07-.09.14-.133.21-.044.071-.091.141-.134.212l-.151-.338c-.05-.114-.1-.228-.15-.338l-.218-.13-.217-.131.415-.221c.137-.074.277-.147.415-.22-.051-.138-.258-.68-.308-.817-.141-.017-.706-.09-.847-.11-.02.093-.04.184-.063.277-.02.094-.04.184-.064.278a17.346 17.346 0 0 1-.428-.194 15.502 15.502 0 0 1-.428-.194c.027.137.057.274.083.411l.084.412c-.097-.09-.194-.178-.291-.265l-.291-.264-.274.214-.275.214c-.431-.26-2.157-1.304-2.589-1.569l-1.408.044c-.09.117-.452.589-.539.706l-.331.699c-.11.234-.221.465-.331.7-.238-.038-1.181-.192-1.419-.228-.09.14-.177.28-.267.421-.09.14-.177.281-.268.422l-.492.016c-.163.007-.327.01-.491.017l.361.331.361.331-.421.014c-.141.003-.281.01-.422.013-.02.07-.043.14-.063.208-.02.07-.044.14-.064.207l.432.261.431.261c-.07.023-.14.05-.211.073-.07.027-.14.05-.21.077-.091.141-.178.282-.268.422-.09.14-.181.281-.268.422l-3.515.244-1.994-.626c-.05-.067-.097-.134-.147-.2-.05-.068-.097-.134-.148-.201l.348-.15c.117-.051.231-.101.348-.148 0-.067-.003-.137-.007-.207 0-.07-.003-.138-.006-.208l-.569-.12-.569-.12c-.063.254-.123.508-.187.762l-.187.763.214.13c.07.044.144.087.214.13-.094.05-.462.245-.555.292l-1.73 3.355-.927-.314-.926-.315c-.16.074-.325.147-.485.22-.16.075-.325.148-.485.222l.08.274.08.274-.197.489-.197.488c-.07 0-.14.004-.211.007-.07 0-.14.003-.21.006 0 .09.006.184.006.275 0 .09.007.184.007.274l-1.646 1.562-.194.556-.195.555c-.137.074-.692.365-.833.438l-1.485 2.248-.344.285-.345.284-2.485-12.444c-3.225.622-16.125 3.104-19.35 3.72-.689-3.65-1.378-7.3-2.064-10.95-.689-3.65-1.374-7.299-2.06-10.949l.023-.003Z" fill="#2B2B2B"/></svg>